<?xml version="1.0" encoding="UTF-8" standalone="no"?>
<svg width="18px" height="20px" viewBox="0 0 18 20" version="1.1" xmlns="http://www.w3.org/2000/svg" xmlns:xlink="http://www.w3.org/1999/xlink">
    <!-- Generator: sketchtool 46.2 (44496) - http://www.bohemiancoding.com/sketch -->
    <title>2A3376AC-3701-468C-B93A-E634E2F81722</title>
    <desc>Created with sketchtool.</desc>
    <defs>
        <path d="M8.98963043,20 C10.1529939,20 11.1048417,19.1 11.1048417,18 L6.87442383,18 C6.87442383,19.1 7.82626696,20 8.98963043,20 Z M15.8640574,14 L15.8640574,8.5 C15.8640574,5.4 13.6430843,2.9 10.576033,2.2 L10.576033,1.5 C10.576033,0.7 9.83571652,0 8.98963043,0 C8.14355217,0 7.40322548,0.7 7.40322548,1.5 L7.40322548,2.2 C4.33617496,2.9 2.11520739,5.4 2.11520739,8.5 L2.11520739,14 L0,16 L0,17 L17.9792609,17 L17.9792609,16 L15.8640574,14 Z" id="path-1"></path>
    </defs>
    <g id="home-page-&amp;-landing-page" stroke="none" stroke-width="1" fill="none" fill-rule="evenodd">
        <g id="homepage-&gt;=1024-after-login" transform="translate(-1005.000000, -25.000000)">
            <g id="Group-10">
                <g id="notifications" transform="translate(1005.000000, 25.000000)">
                    <mask id="mask-2" fill="white">
                        <use xlink:href="#path-1"></use>
                    </mask>
                    <g id="Clip-2"></g>
                    <polygon id="Fill-1" fill="red" mask="url(#mask-2)" points="-3.91304348 24 21.8923043 24 21.8923043 -4 -3.91304348 -4"></polygon>
                </g>
            </g>
        </g>
    </g>
</svg>